<svg xmlns="http://www.w3.org/2000/svg" viewBox="0 0 48 48" role="img" aria-label="Crypto">
  <title>Crypto</title>
  <rect width="48" height="48" rx="12" fill="#F7931A"/>
  <path fill="#ffffff" d="M30.2 20.6c.4-2.8-1.7-4.3-4.6-5.3l.9-3.8-2.3-.6-.9 3.7c-.6-.1-1.2-.3-1.8-.4l.9-3.7-2.3-.6-.9 3.8c-.5-.1-1-.2-1.5-.4l-3.1-.8-.6 2.4s1.7.4 1.6.4c.9.2 1.1.8 1 1.3l-1.1 4.4c.1 0 .2 0 .2.1h-.2l-1.5 6.1c-.1.3-.4.8-1.1.6.0 0-1.6-.4-1.6-.4l-1.1 2.6 2.9.7c.5.1 1.1.3 1.6.4l-.9 3.8 2.3.6.9-3.8c.6.2 1.2.3 1.8.4l-.9 3.7 2.3.6.9-3.8c3.8.7 6.7.4 7.9-3 .9-2.8 0-4.4-2-5.4 1.4-.3 2.5-1.3 2.8-3.2zm-5 7c-.7 2.8-5.3 1.3-6.8.9l1.2-4.9c1.5.4 6.3 1.1 5.6 4zm.7-7.1c-.6 2.5-4.5 1.2-5.7.9l1.1-4.4c1.3.3 5.3 1 4.6 3.5z"/>
</svg>
