<svg xmlns="http://www.w3.org/2000/svg" viewBox="0 0 48 48" role="img" aria-label="GCash">
  <title>GCash</title>
  <rect width="48" height="48" rx="12" fill="#007CFF"/>
  <path fill="#ffffff" d="M24 8c-8.8 0-16 7.2-16 16s7.2 16 16 16c4.1 0 7.9-1.5 10.8-4.1.9-.8.9-2.2.1-3.1-.8-.9-2.2-.9-3.1-.1C29.7 34.5 26.9 35.5 24 35.5c-6.4 0-11.5-5.1-11.5-11.5S17.6 12.5 24 12.5c3.2 0 6.1 1.3 8.2 3.4.8.8 2.1.8 2.9 0 .8-.8.8-2.1 0-2.9C32.2 10 28.3 8 24 8z"/>
  <path fill="#ffffff" d="M20.2 18.8c2.1-1.5 4.9-1.5 7 0 1 .7 2.4.5 3.1-.5.7-1 .5-2.4-.5-3.1-3.5-2.5-8.3-2.5-11.8 0-1 .7-1.2 2.1-.5 3.1.7 1 2.1 1.2 3.1.5z"/>
  <path fill="#ffffff" d="M29.5 22.2h-7.8c-1.2 0-2.1.9-2.1 2.1 0 1.2.9 2.1 2.1 2.1H26c.4 1.7 1.9 3 3.7 3 2.1 0 3.8-1.7 3.8-3.8 0-2-1.5-3.4-4-3.4zm0 3.6c-.7 0-1.3-.4-1.5-1h3c-.2.6-.8 1-1.5 1z"/>
</svg>
